/* XPM */
static char *result[] = {
/* columns rows colors chars-per-pixel */
"16 16 7 1 ",
"  c #20201F",
". c #2D2D2C",
"X c #2F2F2E",
"o c #626262",
"O c gray71",
"+ c gray88",
"@ c None",
/* pixels */
"@@@@@@@@ o.@@@@@",
"@@@@@@@@@X+X@XX@",
"@@@@@@@@@@X+X+X@",
"@@@@@@@@@@@XX+X@",
"@@@@@@@@@@@@X++X",
"@@@@@@@@@@@@X++X",
"@@@@@@@@@@@@X++X",
"@@@@@@@XX@@@X++X",
"@@@@@@@XOXXXX++X",
"@@@@@@@@XOOOO++X",
"@@@@@@@@X+++X+X@",
"@@@@@@@XX+X+X+X@",
"@@@@@@@XX+O+OXX@",
"@@@@@@@@@XO+OXX@",
"@@@@@@@@@@XXXXX@",
"@@@@@@@@@@@@XX@@"
};
