/* XPM */
static char *result[] = {
/* columns rows colors chars-per-pixel */
"16 16 30 1 ",
"  c black",
". c #010101",
"X c #020202",
"o c #040404",
"O c gray2",
"+ c #060605",
"@ c #060606",
"# c #070707",
"$ c gray3",
"% c #0B0B0B",
"& c gray42",
"* c #838383",
"= c #9D9D9D",
"- c gray65",
"; c gray69",
": c #B1B1B1",
"> c #B4B4B4",
", c gray71",
"< c gray77",
"1 c #CDCDCD",
"2 c #CECECE",
"3 c gray81",
"4 c #D2D2D2",
"5 c #D5D5D5",
"6 c gray84",
"7 c gray86",
"8 c gainsboro",
"9 c #DDDDDD",
"0 c gray88",
"q c None",
/* pixels */
"qqqqqqqqqqqqqqqq",
"qqqqqqqqqqqqqqqq",
"qqqqqqqqqqqqqqqq",
"qqqqqqqqqqqqqqqq",
"qqqqqq.4590.OO.O",
"qqqqqq @$X 007; ",
"qqqqqqqqqq 78 .q",
"qqqqqqqqqq 200.@",
"qqqqqqqqqq 006+ ",
"qqqqq      80&#q",
"qqqqq ,:>,,00 #X",
"qqqqqq 000,0000 ",
"qqqqqq 0%2,00,oq",
"qqqqq. -=9,*<13.",
"qqqqq.. ,0>     ",
"qqqqqqqq   qqqqq"
};
