/* XPM */
static char *result[] = {
/* columns rows colors chars-per-pixel */
"16 16 9 1 ",
"  c #242423",
". c #272726",
"X c #282827",
"o c #2D2D2C",
"O c #2F2F2E",
"+ c gray71",
"@ c #CACACA",
"# c gray88",
"$ c None",
/* pixels */
"$$$$$$$$$$$$$$$$",
"$$$$$$$$$$$$$$$$",
"$$$$$$$$$$$$$$$$",
"$$$$$$$$$$OO$$$$",
"$$$$$$$$OO##OOO$",
"$$$$$$$o@#OO###O",
"$$$$$$$. X$O###O",
"$$$$$$$$$$$O#O#O",
"$$$$$$$OO$$O#O#O",
"$$$$$$$O+OOO##OO",
"$$$$$$$$O++++#OO",
"$$$$$$$$O###+##O",
"$$$$$$$OO#O#+#OO",
"$$$$$$$OO#+#+OOO",
"$$$$$$$$OO+#+OOO",
"$$$$$$$$$$OOO$$$"
};
