/* XPM */
static char *result[] = {
/* columns rows colors chars-per-pixel */
"16 16 7 1 ",
"  c #20201F",
". c #2D2D2C",
"X c #2F2F2E",
"o c #626262",
"O c gray71",
"+ c gray88",
"@ c None",
/* pixels */
"@@@@@@@@@@@@@@@@",
"@@@@@@@@@@@@@@@@",
"@@@@@@@@@@@@@@@@",
"@@@@@@@@@@@@@@@@",
"@@@@@@@@@@@@@@@@",
"@@@@@@@@@@@@@@@@",
"@@@@@@@@@@@@@@@@",
"@@@XX@@XX@@@@@@@",
"@@@XXXXOX@@@@@@ ",
"@@X+++OX@@@@@@Xo",
"@XOOX+OX@@@@@X+.",
"@X++++OX@@@@X+X@",
"XXOOXXOXXXXXXX@@",
"XXXX++++++++++X@",
"@XXXXX++++++XXX@",
"@@@@@@XXXXXX@@@@"
};
