/* XPM */
static char *result[] = {
/* columns rows colors chars-per-pixel */
"16 16 8 1 ",
"  c #2F2F2E",
". c gray71",
"X c #D2D2D2",
"o c #D5D5D5",
"O c #DADADA",
"+ c #DFDFDF",
"@ c gray88",
"# c None",
/* pixels */
"################",
"################",
"################",
"################",
"################",
"################",
"################",
"####  ##  ######",
"####    . ###  #",
"### @@@. #### o ",
"## .. @. #### @ ",
"## @@@@. ### X #",
"## .....     + #",
"#   .  @@O@@@  #",
"# @@ @@@@@@@@@@ ",
"##              "
};
