/* XPM */
static char *result[] = {
/* columns rows colors chars-per-pixel */
"16 16 31 1 ",
"  c black",
". c #010101",
"X c #020202",
"o c gray1",
"O c #040404",
"+ c gray2",
"@ c #060605",
"# c #060606",
"$ c #070707",
"% c gray3",
"& c #0B0B0B",
"* c gray42",
"= c #838383",
"- c #9D9D9D",
"; c gray65",
": c gray69",
"> c #B1B1B1",
", c #B4B4B4",
"< c gray71",
"1 c gray77",
"2 c #CDCDCD",
"3 c #CECECE",
"4 c gray81",
"5 c #D2D2D2",
"6 c #D5D5D5",
"7 c gray84",
"8 c gray86",
"9 c gainsboro",
"0 c #DDDDDD",
"q c gray88",
"w c None",
/* pixels */
"wwwwwwwwwwwwwwww",
"wwwwwwwwwwwwwwww",
"wwwwwwwwwwwwwwww",
"wwwwwwwwwwwwwwww",
"wwwwwwwwwwwwwwww",
"wwww..ww  wwwwww",
"wwww.   < www .w",
"wwww ;qq> www#5.",
"www <-&q, www%6o",
"www q03q< wwwX0%",
"www ,<<<<     q.",
"wwww =qqq9q38q.w",
"wwww 1qqqqqq9q+w",
"wwww 2<q *7q 8+w",
"wwww 4Oq$$@..:.w",
"wwww .w Xw #w +w"
};
