/* XPM */
static char *result[] = {
/* columns rows colors chars-per-pixel */
"16 16 15 1 ",
"  c #2F2F2E",
". c #929291",
"X c #B1B1B1",
"o c gray71",
"O c #CDCDCD",
"+ c gray81",
"@ c LightGray",
"# c #D7D7D7",
"$ c #D8D8D8",
"% c gray85",
"& c #DADADA",
"* c gainsboro",
"= c #DFDFDF",
"- c gray88",
"; c None",
/* pixels */
";;;;;;;;;;;;;;;;",
";;;;;;;;;;;;;;;;",
";;;;;;;;;;;;;;;;",
";;;;;;;;;;;;;;;;",
";;;;;;;;;;;;;;;;",
";;;;;;;;;;;;;;;;",
";;;;;;;;;;;;;;;;",
";;;  ;;  ;;;;;;;",
";;;    . ;;;;;  ",
";; %@+# ;;;;; - ",
"; Xo -& ;;;; - ;",
"; ----$ ;;; O ;;",
"; ooooo      ;;;",
"   o  ---=*%  ;;",
" -- ---------- ;",
";              ;"
};
