/* XPM */
static char *result[] = {
/* columns rows colors chars-per-pixel */
"16 16 31 1 ",
"  c black",
". c #010101",
"X c #020202",
"o c gray1",
"O c #040404",
"+ c gray2",
"@ c #060605",
"# c #060606",
"$ c #070707",
"% c gray3",
"& c #0B0B0B",
"* c gray42",
"= c #838383",
"- c #9D9D9D",
"; c gray65",
": c gray69",
"> c #B1B1B1",
", c #B4B4B4",
"< c gray71",
"1 c gray77",
"2 c #CDCDCD",
"3 c #CECECE",
"4 c gray81",
"5 c #D2D2D2",
"6 c #D5D5D5",
"7 c gray84",
"8 c gray86",
"9 c gainsboro",
"0 c #DDDDDD",
"q c gray88",
"w c None",
/* pixels */
"wwwwwwwwwwwwwwww",
"wwwwwwwwwwwwwwww",
"wwwwwwwwwwwwwwww",
"wwwwwwwwwwwwwwww",
"wwwwwwwwwwwwwwww",
"wwwwww  ww..wwww",
"w. www <   .wwww",
".5#www >qq; wwww",
"o6%www ,q&-< www",
"%0Xwww <q30q www",
".q     <<<<, www",
"w.q83q9qqq= wwww",
"w+q9qqqqqq1 wwww",
"w+8 q7* q<2 wwww",
"w.:..@$$qO4 wwww",
"w+ w# wX w. wwww"
};
