/* XPM */
static char *result[] = {
/* columns rows colors chars-per-pixel */
"16 16 6 1 ",
"  c gray7",
". c #2D2D2C",
"X c #2F2F2E",
"o c gray71",
"O c gray88",
"+ c None",
/* pixels */
"++++++++++++++++",
"++++++++++++++++",
"+++++++++XXX++++",
"++++++XXXoOoXX++",
"++++++XXOoOoOOXX",
"+++++++XOXOoOoOX",
"+++++++XOOOoOOX+",
"++++++XoooooOXO ",
"++++++XXXXXXOOX.",
"+++++++++++XOOXX",
"+++++++++++XOOXX",
"+++++++++XXXOXoX",
"++++++++XOOXOOXX",
"+++++++XOXXXXX++",
"+++++++XOX++++++",
"++++++++X+++++++"
};
