/* XPM */
static char *result[] = {
/* columns rows colors chars-per-pixel */
"16 16 4 1 ",
"  c #2F2F2E",
". c gray71",
"X c gray88",
"o c None",
/* pixels */
"oooooooooooooooo",
"oooooooooooooooo",
"oooooooooooooooo",
"ooooooooo   oooo",
"ooooooo  .X. o o",
"oooooo  X.X.  X ",
"oooooo  X X.X X ",
"ooooooo XXX.XX o",
"ooooooo ....X  o",
"oooooo .   XXX  ",
"oooooo  oo XX X ",
"oooooooooo X XX ",
"oooooooooo XXX o",
"oooooo     XXX o",
"oooooo XXXX   oo",
"ooooooo    ooooo"
};
