/* XPM */
static char *result[] = {
/* columns rows colors chars-per-pixel */
"16 16 9 1 ",
"  c #242423",
". c #272726",
"X c #282827",
"o c #2D2D2C",
"O c #2F2F2E",
"+ c gray71",
"@ c #CACACA",
"# c gray88",
"$ c None",
/* pixels */
"$$$$$$$$$$$$$$$$",
"$$$$$$$$$$$$$$$$",
"$$$$$$$$$$$$$$$$",
"$$$$$$$$$$OOO$$$",
"$$$$$$$$OO+#+OOO",
"$$$$$$$OO#+#+OOO",
"$$$$$$$OO#O#+#OO",
"$$$$$$$$O###+##O",
"$$$$$$$$O++++#OO",
"$$$$$$$O+OOO##OO",
"$$$$$$$OO$$O#O#O",
"$$$$$$$$$$$O#O#O",
"$$$$$$$. X$O###O",
"$$$$$$$o@#OO###O",
"$$$$$$$$OO##OOO$",
"$$$$$$$$$$OO$$$$"
};
