/* XPM */
static char *result[] = {
/* columns rows colors chars-per-pixel */
"16 16 22 1 ",
"  c #8FC809",
". c #90C90C",
"X c #92C90F",
"o c #93CA13",
"O c #94CA14",
"+ c #A1D132",
"@ c #A2D132",
"# c #A3D235",
"$ c #ACD648",
"% c #ADD74B",
"& c #B0D852",
"* c #B7DC62",
"= c #BFE073",
"- c #C2E179",
"; c #FBFDF7",
": c #FCFEF9",
"> c #FDFEFA",
", c #FDFEFB",
"< c #FEFEFC",
"1 c #FFFFFE",
"2 c white",
"3 c None",
/* pixels */
"3              3",
"                ",
"   X+@$*=-#     ",
"   2222122222   ",
"   222222222,   ",
"   222222222;  3",
"   222222222,   ",
"   222222222,   ",
"   <22222222>   ",
"   :222222221.  ",
"   <222222222.  ",
"  3122222222<3  ",
"3  22222222213  ",
"3   o3X.O3+%&   ",
"                ",
"3              3"
};
