/* XPM */
static char *result[] = {
/* columns rows colors chars-per-pixel */
"16 16 20 1 ",
"  c black",
". c #411D31",
"X c #6B2F50",
"o c #6F3153",
"O c #803860",
"+ c #803961",
"@ c #946650",
"# c #DD6A6D",
"$ c #EF7276",
"% c #F57579",
"& c #F7767A",
"* c #B08B72",
"= c #B18B72",
"- c #C28569",
"; c #B55088",
": c #D4A789",
"> c #E8B796",
", c #C0CBDC",
"< c white",
"1 c None",
/* pixels */
"11   1111111   1",
"1 #%X       +&& ",
"1 + $$:@@@:$$ ; ",
"1 o; &>>>>>& ++ ",
"11 o >>>>>>> . 1",
"111 @< >-> <@ 11",
"111 :  >&>  : 11",
"111 :><< <<>: 11",
"111 :<,   ,<: 11",
"11 *@ ,,,,, @= 1",
"11 ::$ ,,, $:: 1",
"1    $ <,< $   1",
" o @@  <<<  @@ 1",
"+   @;,,<,,;- 11",
"+O ++; ,,, ;;+ 1",
"1111111111111111"
};
