/* XPM */
static char *result[] = {
/* columns rows colors chars-per-pixel */
"16 16 134 2 ",
"   c #3F1B49",
".  c #3C1E49",
"X  c #401B4A",
"o  c #4D1A57",
"O  c #7E3CAC",
"+  c #7E3DAC",
"@  c #7F3DAC",
"#  c #7E3DAD",
"$  c #7F3DAD",
"%  c #7C3EAC",
"&  c #7D3EAD",
"*  c #7D3EAF",
"=  c #7F3DB0",
"-  c #7E3EB1",
";  c #77579D",
":  c #7B539F",
">  c #7A549F",
",  c #7B549F",
"<  c #7E51A1",
"1  c #7F51A1",
"2  c #7D52A0",
"3  c #7C53A0",
"4  c #7B41B2",
"5  c #7C41B0",
"6  c #7C41B1",
"7  c #7E41B1",
"8  c #7F41B3",
"9  c #7D42B2",
"0  c #7C43B2",
"q  c #7D43B2",
"w  c #7D44B0",
"e  c #7C44B1",
"r  c #7F44B2",
"t  c #7848B4",
"y  c #7A49B4",
"u  c #784CB7",
"i  c #843F9E",
"p  c #8E35A6",
"a  c #883BA1",
"s  c #893AA2",
"d  c #8A3BA2",
"f  c #8A3AA3",
"g  c #823BAD",
"h  c #803CAC",
"j  c #833CAF",
"k  c #8938AE",
"l  c #9137A8",
"z  c #9837AF",
"x  c #9D37AE",
"c  c #933FAB",
"v  c #953DAB",
"b  c #943FAB",
"n  c #9739AE",
"m  c #9739AF",
"M  c #953BAE",
"N  c #953BAF",
"B  c #963AAE",
"V  c #973AAE",
"C  c #973AAF",
"Z  c #963BAF",
"A  c #933DAD",
"S  c #913FAC",
"D  c #923EAD",
"F  c #933EAD",
"G  c #953DAC",
"H  c #943CAD",
"J  c #943DAD",
"K  c #963DAC",
"L  c #973CAD",
"P  c #943EAC",
"I  c #953EAC",
"U  c #943FAC",
"Y  c #953CAE",
"T  c #9A39AD",
"R  c #9839AE",
"E  c #9838AF",
"W  c #9839AF",
"Q  c #983CAD",
"!  c #833DB3",
"~  c #803FB2",
"^  c #813FB3",
"/  c #843EB1",
"(  c #883EB6",
")  c #9937B0",
"_  c #9937B2",
"`  c #9A36B3",
"'  c #9A37B3",
"]  c #9739B0",
"[  c #973AB0",
"{  c #9839B1",
"}  c #9938B2",
"|  c #A035AF",
" . c #A531B0",
".. c #8442A0",
"X. c #8B46A7",
"o. c #8A47A7",
"O. c #814FA2",
"+. c #824EA3",
"@. c #844DA4",
"#. c #8948A6",
"$. c #8E43A9",
"%. c #8F43A9",
"&. c #8F43AB",
"*. c #8B46A8",
"=. c #8C45A8",
"-. c #8D45A8",
";. c #8E44A9",
":. c #8C46A8",
">. c #9141AA",
",. c #9240AA",
"<. c #9340AA",
"1. c #9241AA",
"2. c #9340AB",
"3. c #9142AA",
"4. c #9042AB",
"5. c #9141AC",
"6. c #9240AC",
"7. c #9241AC",
"8. c #9240AD",
"9. c #8041B0",
"0. c #8140B3",
"q. c #8345B1",
"w. c #8440B5",
"e. c #8147B4",
"r. c #8547B7",
"t. c #8548B2",
"y. c #8349B5",
"u. c #834AB5",
"i. c #8449B5",
"p. c #8549B5",
"a. c #844AB5",
"s. c #844AB6",
"d. c #8848B7",
"f. c #8050B8",
/* pixels */
". ..&.&.4.5.S D A H H Y M M d X ",
"i f.r.i.t.q.w e q 0 0 9 8 ! y f ",
"5.d.v X.#.o.X.:.-.;.;.%.<.| g B ",
"6.s.$.1 > , , , : 3 3 3 +.L h V ",
"7.u.=.: ; ; ; ; ; ; ; ; 2 I + V ",
"7.p.*.: ; ; ; ; ; ; ; ; < G % n ",
"7.a.*., ; ; ; ; ; ; ; ; < K % m ",
"5.a.*., ; ; ; ; ; ; ; ; < I O R ",
"7.p.X., ; ; ; ; ; ; ; ; 2 I @ C ",
"7.y.:., ; ; ; ; ; ; ; ; 2 P & R ",
"8.e.:.: ; ; ; ; ; ; ; ; 2 U # W ",
"F r -.: ; ; ; ; ; ; ; ; 2 b $ E ",
"J 9.1.O.3 2 2 2 2 2 2 < @.Q j z ",
"M / x 2.3.>.,.c b I G K T  .k ) ",
"s u ^ 7 5 6 4 * = - ~ 0.w.( t l ",
"  a Y Y N Z [ ] { } _ _ ` ' p o "
};
