/* XPM */
static char *result[] = {
/* columns rows colors chars-per-pixel */
"16 16 152 2 ",
"   c #7848B4",
".  c #9553A7",
"X  c #8747B6",
"o  c #8847B6",
"O  c #8B47B7",
"+  c #8B48B7",
"@  c #8C48B7",
"#  c #8847BA",
"$  c #8947BA",
"%  c #8B47BA",
"&  c #8E45B8",
"*  c #8D47B8",
"=  c #8F46BA",
"-  c #8E43BC",
";  c #8C46BC",
":  c #8B48B8",
">  c #8A49B8",
",  c #8B49BB",
"<  c #8C48B8",
"1  c #8B4DBF",
"2  c #9340B7",
"3  c #8551BD",
"4  c #9A67AD",
"5  c #9D6AAF",
"6  c #964DC1",
"7  c #964DC3",
"8  c #944FC4",
"9  c #8456C1",
"0  c #8E50C1",
"q  c #9051C1",
"w  c #9352C3",
"e  c #9553C6",
"r  c #9355C5",
"t  c #9356C6",
"y  c #9457C7",
"u  c #9854C4",
"i  c #9859C9",
"p  c #9A5AC9",
"a  c #995BCA",
"s  c #9C5DCA",
"d  c #A45FD0",
"f  c #9F60CE",
"g  c #9C67D0",
"h  c #A161CF",
"j  c #A062CF",
"k  c #A561CF",
"l  c #A362D0",
"z  c #A463D0",
"x  c #A463D1",
"c  c #A464D1",
"v  c #A564D1",
"b  c #AA66D2",
"n  c #A965D7",
"m  c #AA68D5",
"M  c #CB5FDD",
"N  c #CC60DE",
"B  c #CE62DF",
"V  c #CB67DE",
"C  c #CE64E0",
"Z  c #CF6AE0",
"A  c #D265E1",
"S  c #D066E2",
"D  c #DF60E2",
"F  c #D368E2",
"G  c #D26AE3",
"H  c #D46AE3",
"J  c #D46CE5",
"K  c #D66CE4",
"L  c #D66CE5",
"P  c #D66DE5",
"I  c #D76EE5",
"U  c #D56FE6",
"Y  c #D76EE6",
"T  c #D86EE6",
"R  c #D86FE7",
"E  c #D771E6",
"W  c #D771E7",
"Q  c #D772E7",
"!  c #D773E7",
"~  c #D870E6",
"^  c #D870E7",
"/  c #D973E8",
"(  c #D975E8",
")  c #D975E9",
"_  c #D876E8",
"`  c #D87AE9",
"'  c #D978EA",
"]  c #DA79EA",
"[  c #DA7BEB",
"{  c #D87CEA",
"}  c #DB7CEC",
"|  c #DD7DED",
" . c #DC7EED",
".. c #DD7EED",
"X. c #DC7FED",
"o. c #DD7FED",
"O. c #DE7FEE",
"+. c #E06AE7",
"@. c #E26FE9",
"#. c #E174EB",
"$. c #E179ED",
"%. c #E278ED",
"&. c #E07AED",
"*. c #E17AED",
"=. c #E07BED",
"-. c #E17BED",
";. c #E17CED",
":. c #E17CEE",
">. c #E17DEE",
",. c #E37DEE",
"<. c #E17EEE",
"1. c #E17EEF",
"2. c #E27FEF",
"3. c #AE85C2",
"4. c #DB80EA",
"5. c #DD81EC",
"6. c #DE80EE",
"7. c #DD83EF",
"8. c #DE82EE",
"9. c #DE83EF",
"0. c #E280EF",
"q. c #E381F0",
"w. c #E282F0",
"e. c #E483F0",
"r. c #E384F0",
"t. c #E384F1",
"y. c #E385F1",
"u. c #E389F2",
"i. c #E38AF3",
"p. c #E28FF1",
"a. c #E38CF3",
"s. c #E48CF3",
"d. c #E38EF4",
"f. c #E48EF4",
"g. c #E48FF4",
"h. c #E291F2",
"j. c #E491F5",
"k. c #E493F5",
"l. c #E59CF8",
"z. c #E59FF9",
"x. c #E5A1F9",
"c. c #E5A5FA",
"v. c #E5A6FA",
"b. c #E5A7FA",
"n. c #E5A8FB",
"m. c #E5A9FB",
"M. c #E6A8FB",
"N. c #E6AAFB",
"B. c #E6ABFB",
"V. c #E6ACFC",
"C. c #E6ADFC",
"Z. c #E6B2FD",
/* pixels */
"3.h.9.7.8.X.[ ' _ ! Q Q W W ` 4 ",
"p.g n m b k s a i y t r e 7 3 5.",
" .d ,.g.k.j.g.f.s.i.i.u.e.+.& ^ ",
"| h u.c.C.V.B.B.N.N.N.N.z.$.* ~ ",
"o.j a.N.Z.Z.Z.Z.Z.Z.Z.Z.b.;.+ R ",
"O.x d.N.Z.Z.Z.Z.Z.Z.Z.Z.v.=.o Y ",
"O.v d.B.Z.Z.Z.Z.Z.Z.Z.Z.v.&.X P ",
"6.c d.B.Z.Z.Z.Z.Z.Z.Z.Z.v.:.O T ",
"o.z f.B.Z.Z.Z.Z.Z.Z.Z.Z.b.:.@ I ",
"..l f.B.Z.Z.Z.Z.Z.Z.Z.Z.b.>.> L ",
"} f f.N.Z.Z.Z.Z.Z.Z.Z.Z.b.<.: K ",
"] p s.N.Z.Z.Z.Z.Z.Z.Z.Z.b.1.< H ",
"( u t.x.m.n.M.n.n.b.b.v.l.%.= F ",
"E 6 @.q.y.r.w.0.2.:.-.*.#.D 2 A ",
"4.9 8 w q 0 1 , % # $ $ ; -   Z ",
"5 { ) / W U J G S C B N M N V . "
};
